<?xml version="1.0" encoding="UTF-8"?>
<svg width="1322px" height="1320px" viewBox="0 0 1322 1320" version="1.1" xmlns="http://www.w3.org/2000/svg" xmlns:xlink="http://www.w3.org/1999/xlink">
    <!-- Generator: Sketch 42 (36781) - http://www.bohemiancoding.com/sketch -->
    <title>Artboard</title>
    <desc>Created with Sketch.</desc>
    <defs></defs>
    <g id="Page-1" stroke="none" stroke-width="1" fill="none" fill-rule="evenodd">
        <g id="Artboard" stroke-width="35" stroke="#fff">
            <g id="1" transform="translate(58.000000, 60.000000)">
                <polygon id="Triangle" points="602 0 1204 799 0 799"></polygon>
                <path d="M302.5,404 L902.5,404" id="Line" stroke-linecap="square"></path>
                <path d="M603,405 L603,799" id="Line" stroke-linecap="square"></path>
            </g>
            <g id="2" transform="translate(660.000000, 860.500000) scale(1, -1) translate(-660.000000, -860.500000) translate(58.000000, 461.000000)">
                <polygon id="Triangle" points="602 0 1204 799 0 799"></polygon>
                <path d="M302.5,404 L902.5,404" id="Line" stroke-linecap="square"></path>
                <path d="M603,405 L603,799" id="Line" stroke-linecap="square"></path>
            </g>
            <g id="3" transform="translate(260.000000, 560.000000)">
                <polygon id="Triangle-2" points="400 0 800 503 0 503"></polygon>
                <path d="M168,296 L633,296" id="Line" stroke-linecap="square"></path>
                <path d="M401,296 L401,503" id="Line" stroke-linecap="square"></path>
            </g>
            <g id="4" transform="translate(660.000000, 508.500000) scale(1, -1) translate(-660.000000, -508.500000) translate(260.000000, 257.000000)">
                <polygon id="Triangle-2" points="400 0 800 503 0 503"></polygon>
                <path d="M168,296 L633,296" id="Line" stroke-linecap="square"></path>
                <path d="M401,296 L401,503" id="Line" stroke-linecap="square"></path>
            </g>
            <g id="5" transform="translate(460.000000, 860.000000)">
                <polygon id="Triangle-3" points="200 1.13686838e-13 400 341 0 341"></polygon>
                <path d="M89,203 L312,203" id="Line" stroke-linecap="square"></path>
                <path d="M201,203 L201,341" id="Line" stroke-linecap="square"></path>
            </g>
            <g id="6" transform="translate(660.000000, 289.500000) scale(1, -1) translate(-660.000000, -289.500000) translate(460.000000, 119.000000)">
                <polygon id="Triangle-3" points="200 1.13686838e-13 400 341 0 341"></polygon>
                <path d="M89,203 L312,203" id="Line" stroke-linecap="square"></path>
                <path d="M201,203 L201,341" id="Line" stroke-linecap="square"></path>
            </g>
        </g>
    </g>
</svg>