<svg xmlns="http://www.w3.org/2000/svg" xmlns:xlink="http://www.w3.org/1999/xlink" width="1322" height="1320" version="1.1" viewBox="0 0 1322 1320"><title>Artboard</title><desc>Created with Sketch.</desc><g id="Page-1" fill="none" fill-rule="evenodd" stroke="none" stroke-width="1"><g id="Artboard" stroke="#fff" stroke-width="35"><g id="1" transform="translate(58.000000, 60.000000)"><polygon id="Triangle" points="602 0 1204 799 0 799"/><path id="Line" stroke-linecap="square" d="M302.5,404 L902.5,404"/><path id="Line" stroke-linecap="square" d="M603,405 L603,799"/></g><g id="2" transform="translate(660.000000, 860.500000) scale(1, -1) translate(-660.000000, -860.500000) translate(58.000000, 461.000000)"><polygon id="Triangle" points="602 0 1204 799 0 799"/><path id="Line" stroke-linecap="square" d="M302.5,404 L902.5,404"/><path id="Line" stroke-linecap="square" d="M603,405 L603,799"/></g><g id="3" transform="translate(260.000000, 560.000000)"><polygon id="Triangle-2" points="400 0 800 503 0 503"/><path id="Line" stroke-linecap="square" d="M168,296 L633,296"/><path id="Line" stroke-linecap="square" d="M401,296 L401,503"/></g><g id="4" transform="translate(660.000000, 508.500000) scale(1, -1) translate(-660.000000, -508.500000) translate(260.000000, 257.000000)"><polygon id="Triangle-2" points="400 0 800 503 0 503"/><path id="Line" stroke-linecap="square" d="M168,296 L633,296"/><path id="Line" stroke-linecap="square" d="M401,296 L401,503"/></g><g id="5" transform="translate(460.000000, 860.000000)"><polygon id="Triangle-3" points="200 0 400 341 0 341"/><path id="Line" stroke-linecap="square" d="M89,203 L312,203"/><path id="Line" stroke-linecap="square" d="M201,203 L201,341"/></g><g id="6" transform="translate(660.000000, 289.500000) scale(1, -1) translate(-660.000000, -289.500000) translate(460.000000, 119.000000)"><polygon id="Triangle-3" points="200 0 400 341 0 341"/><path id="Line" stroke-linecap="square" d="M89,203 L312,203"/><path id="Line" stroke-linecap="square" d="M201,203 L201,341"/></g></g></g></svg>